# xmcd
#
# Track frame offsets:
#	150
#	15425
#	25287
#	43462
#	56300
#	69775
#	84050
#	96500
#	109275
#	128300
#	141087
#
# Disc length: 2055
#
# Revision: 1
# Processed by: cddbd v1.5.1PL0 Copyright (c) Steve Scherf et al.
# Submitted via: dBpowerAMP V4.0
# Normalized: r0:TRMNUM
#
DISCID=8408050b
DTITLE=Nashville Shooters - Rockin' Country Hit's
DYEAR=1900
DGENRE=Country
TTITLE0=And Still
TTITLE1=The Big One
TTITLE2=All My Rowdy Friends
TTITLE3=XXX's &OOO's
TTITLE4=Burn Me Down
TTITLE5=Baby's Got Her Blue Jeans On
TTITLE6=What Part Of No
TTITLE7=Wink
TTITLE8=The Call Of The Wild
TTITLE9=This Time
TTITLE10=Lovebug
EXTD=
EXTT0=
EXTT1=
EXTT2=
EXTT3=
EXTT4=
EXTT5=
EXTT6=
EXTT7=
EXTT8=
EXTT9=
EXTT10=
PLAYORDER=
